# xmcd
#
# Track frame offsets: 
#        183
#        12695
#        24998
#        38985
#        49910
#        63403
#        75408
#        84795
#        94920
#        108910
#        122238
#        134578
#        145093
#        156800
#        167503
#        178535
#        189513
#        203703
#        215448
#        228218
#        238593
#        249883
#        260588
#        273790
#        285138
#        294693
#        304643
#        314778
#
# Disc length: 4337 seconds
#
# Revision: 2
# Processed by: cddbd v1.5.2PL0 Copyright (c) Steve Scherf et al.
# Submitted via: ExactAudioCopy v0.95b4
#
DISCID=8110ef1c
DTITLE=Lefty Frizzell - Life's Like Poetry - Disc 03 of 12
DYEAR=1992
DGENRE=Country
TTITLE0=Before You Go, Make Sure You Know (1953)
TTITLE1=Two Friends of Mine in Love (1953)
TTITLE2=Hopeless Love (1953)
TTITLE3=Then I'll Come Back To You (1953)
TTITLE4=Lefty Frizzell and Wayne Raney - The Tragic Letter (recorded 195
TTITLE4=3 - released 1965)
TTITLE5=Lefty Frizzell and Wayne Raney - Two Hearts Broken Now (1954)
TTITLE6=Lefty Frizzell and Wayne Raney - You Can Always Count On Me (195
TTITLE6=4)
TTITLE7=Lefty Frizzell and Wayne Raney - I've Been Away Way Too Long (19
TTITLE7=54)
TTITLE8=Run 'Em Off  (1953)
TTITLE9=The Darkest Moment (Is Just Before The Light Of Day) (1953)
TTITLE10=You're Too Late (1954)
TTITLE11=My Little Her And Him (1954)
TTITLE12=I Love You Mostly (1954)
TTITLE13=You're There, I'm Here (recorded 1954 - released 1984)
TTITLE14=Let It Be So (recorded 1954 - released 1984)
TTITLE15=Mama! (1954)
TTITLE16=Making Believe (1955)
TTITLE17=Moonlight, Darling And You (1955)
TTITLE18=I'll Sit Alone And Cry (1955)
TTITLE19=A Forest Fire (Is In Your Heart) (1955)
TTITLE20=Sweet Lies (1955)
TTITLE21=Your Tomorrows Will Never Come (1955)
TTITLE22=It Gets Late So Early (1955)
TTITLE23=I'm Lost Between Right And Wrong (1955)
TTITLE24=Promises (Promises, Promises) (1956)
TTITLE25=My Love And Baby's Gone (recorded 1955 - released 1984)
TTITLE26=Today Is That Tomorrow (I Dreamed Of Yesterday) (1956)
TTITLE27=First To Have A Second Chance (1955)
EXTD=Life's Like Poetry - Disc 03 of 12\n© 1992 Bear Family Records
EXTT0=
EXTT1=
EXTT2=
EXTT3=
EXTT4=
EXTT5=
EXTT6=
EXTT7=
EXTT8=
EXTT9=
EXTT10=
EXTT11=
EXTT12=
EXTT13=
EXTT14=
EXTT15=
EXTT16=
EXTT17=
EXTT18=
EXTT19=
EXTT20=
EXTT21=
EXTT22=
EXTT23=
EXTT24=
EXTT25=
EXTT26=
EXTT27=
PLAYORDER=
